#!OML:ASF F:\VICON\USERDATA\INSTALL\rory3\rory3.ASF
:FULLY-SPECIFIED
:DEGREES
950
root -1.16906 23.7466 2.58025 -0.117279 -0.632566 0.83075
lowerback 3.94598 -0.472248 1.08512
upperback 2.31909 -0.58594 3.72516
thorax 0.198464 -0.306382 3.24326
lowerneck -10.3929 2.07946 -9.76576
upperneck 43.7586 6.62192 -0.816388
head 17.8384 1.00447 2.51389
rclavicle 2.78299e-015 4.77083e-015
rhumerus -32.1921 -4.68824 -76.224
rradius 35.4432
rwrist 19.0725
rhand -18.7129 1.14352
rfingers 7.12502
rthumb 7.58224 -28.7006
lclavicle 2.78299e-015 4.77083e-015
lhumerus -35.6077 14.5947 77.0178
lradius 28.7066
lwrist -6.99985
lhand -8.21267 28.0333
lfingers 7.12502
lthumb 17.7042 57.2473
rfemur -17.9982 -5.4358 26.2632
rtibia 54.9897
rfoot -28.2136 7.17076
rtoes 14.3574
lfemur -19.0714 -1.65739 -20.1814
ltibia 11.2453
lfoot 23.4469 -0.695171
ltoes -19.6096
951
root -1.16436 23.6907 2.62916 -0.16235 -0.643401 0.733915
lowerback 3.94624 -0.473738 1.13059
upperback 2.27922 -0.584759 3.78358
thorax 0.15754 -0.305397 3.27833
lowerneck -10.3964 2.0621 -9.78255
upperneck 43.8026 6.6221 -0.856605
head 17.8701 0.993129 2.49941
rclavicle -2.98177e-015 1.74931e-014
rhumerus -32.3853 -4.57038 -76.1727
rradius 35.5066
rwrist 18.5569
rhand -18.9379 1.59372
rfingers 7.12502
rthumb 7.36505 -28.2581
lclavicle -2.98177e-015 1.74931e-014
lhumerus -35.6271 14.6524 77.0349
lradius 28.5472
lwrist -7.04599
lhand -8.47728 27.9028
lfingers 7.12502
lthumb 17.4496 57.1396
rfemur -18.1854 -5.60853 26.3561
rtibia 55.8665
rfoot -28.7468 7.18588
rtoes 13.96
lfemur -18.3428 -1.72652 -20.1594
ltibia 10.2577
lfoot 23.5052 -0.100815
ltoes -18.3608
952
root -1.1603 23.6329 2.67775 -0.182738 -0.652252 0.676174
lowerback 3.87663 -0.484095 1.11658
upperback 2.28993 -0.60187 3.81369
thorax 0.208806 -0.314546 3.31728
lowerneck -10.5647 2.04475 -9.72628
upperneck 43.8627 6.62511 -0.891285
head 17.956 0.990037 2.48071
rclavicle -1.49089e-014 2.54444e-014
rhumerus -32.4706 -4.43471 -76.1838
rradius 35.7095
rwrist 18.4575
rhand -18.7847 1.39389
rfingers 7.12502
rthumb 7.51293 -28.4527
lclavicle -1.49089e-014 2.54444e-014
lhumerus -35.5961 14.669 77.074
lradius 28.5512
lwrist -7.01083
lhand -8.8453 27.893
lfingers 7.12502
lthumb 17.0954 57.1609
rfemur -18.432 -5.81414 26.4173
rtibia 56.7856
rfoot -29.2887 7.36049
rtoes 14.0204
lfemur -17.5747 -1.61357 -20.2292
ltibia 9.15396
lfoot 23.9434 0.342682
ltoes -17.5933
953
root -1.15499 23.5752 2.7293 -0.20917 -0.602724 0.658129
lowerback 3.74864 -0.514378 1.067
upperback 2.30922 -0.649024 3.81698
thorax 0.303105 -0.339128 3.34879
lowerneck -10.6136 2.03679 -9.71695
upperneck 43.8555 6.57646 -0.803288
head 17.9592 0.982447 2.51318
rclavicle -2.70347e-014 -7.95139e-015
rhumerus -32.5523 -4.39837 -76.193
rradius 35.8329
rwrist 18.512
rhand -18.8433 1.20207
rfingers 7.12502
rthumb 7.45642 -28.6465
lclavicle -2.70347e-014 -7.95139e-015
lhumerus -35.6151 14.5829 77.1096
lradius 28.6907
lwrist -6.86409
lhand -8.77261 28.13
lfingers 7.12502
lthumb 17.1653 57.3918
rfemur -18.6368 -6.10575 26.4039
rtibia 57.7105
rfoot -29.7665 8.00664
rtoes 15.0346
lfemur -16.7415 -1.56914 -20.37
ltibia 8.00832
lfoot 24.744 0.356188
ltoes -18.1199
954
root -1.14917 23.5124 2.78011 -0.204877 -0.51493 0.589566
lowerback 3.59409 -0.559758 1.05752
upperback 2.30769 -0.715076 3.83681
thorax 0.391664 -0.372768 3.37505
lowerneck -10.5778 2.0266 -9.68909
upperneck 43.7974 6.51979 -0.760847
head 17.9135 0.973646 2.51592
rclavicle 7.55382e-015 2.22639e-014
rhumerus -32.6431 -4.41856 -76.1798
rradius 35.9027
rwrist 18.5467
rhand -18.8638 1.15864
rfingers 7.12502
rthumb 7.43658 -28.6906
lclavicle 7.55382e-015 2.22639e-014
lhumerus -35.7047 14.5606 77.0907
lradius 28.7999
lwrist -6.77928
lhand -8.70973 28.0403
lfingers 7.12502
lthumb 17.2258 57.2968
rfemur -18.8722 -6.36911 26.4552
rtibia 58.6569
rfoot -30.2878 7.92395
rtoes 13.24
lfemur -15.9195 -1.54734 -20.4315
ltibia 6.83654
lfoot 25.3474 0.480771
ltoes -17.9452
955
root -1.14406 23.4505 2.82764 -0.286883 -0.382012 0.411285
lowerback 3.62665 -0.610022 1.17804
upperback 2.29962 -0.777051 3.88362
thorax 0.367498 -0.4027 3.35805
lowerneck -10.6843 1.99848 -9.62627
upperneck 43.8474 6.47029 -0.743973
head 17.9752 0.959666 2.50923
rclavicle 1.88845e-014 -7.95139e-015
rhumerus -32.7379 -4.43912 -76.1545
rradius 35.9237
rwrist 18.4987
rhand -18.7828 1.21284
rfingers 7.12502
rthumb 7.51477 -28.6337
lclavicle 1.88845e-014 -7.95139e-015
lhumerus -35.7132 14.5821 77.0677
lradius 28.7913
lwrist -6.73271
lhand -8.77085 28.0324
lfingers 7.12502
lthumb 17.167 57.2941
rfemur -19.0157 -6.67119 26.6452
rtibia 59.592
rfoot -30.5095 7.94877
rtoes 13.401
lfemur -15.0258 -1.56009 -20.3452
ltibia 5.70874
lfoot 25.7814 0.316783
ltoes -18.7651
956
root -1.13974 23.3906 2.87594 -0.326787 -0.347497 0.271081
lowerback 3.66544 -0.614977 1.24273
upperback 2.24307 -0.777941 3.93401
thorax 0.287656 -0.402263 3.37471
lowerneck -10.7943 1.97331 -9.66713
upperneck 43.9607 6.41535 -0.615058
head 18.0657 0.938178 2.57379
rclavicle 1.09332e-014 -7.95139e-015
rhumerus -32.9243 -4.41192 -76.0951
rradius 35.9912
rwrist 18.4404
rhand -18.6933 1.24657
rfingers 7.12502
rthumb 7.60116 -28.5968
lclavicle 1.09332e-014 -7.95139e-015
lhumerus -35.6088 14.5181 77.1267
lradius 28.6648
lwrist -6.52952
lhand -8.72735 28.2023
lfingers 7.12502
lthumb 17.2089 57.4603
rfemur -19.2152 -6.89102 26.8156
rtibia 60.538
rfoot -30.8675 7.77899
rtoes 12.5223
lfemur -14.1568 -1.48134 -20.3209
ltibia 4.61149
lfoot 26.274 -0.328702
ltoes -21.2904
957
root -1.13459 23.3277 2.92334 -0.317843 -0.367316 0.176655
lowerback 3.60938 -0.633161 1.21734
upperback 2.22793 -0.804428 4.00369
thorax 0.306254 -0.416274 3.46156
lowerneck -10.8209 1.96267 -9.76601
upperneck 43.8912 6.41579 -0.596235
head 18.0263 0.927833 2.59858
rclavicle 6.36111e-015 -6.36111e-015
rhumerus -32.9865 -4.26023 -76.0625
rradius 36.0843
rwrist 18.4582
rhand -19.0513 1.32271
rfingers 7.12502
rthumb 7.25563 -28.5329
lclavicle 6.36111e-015 -6.36111e-015
lhumerus -35.5918 14.76 77.1207
lradius 28.7093
lwrist -6.68593
lhand -8.59781 28.1825
lfingers 7.12502
lthumb 17.3336 57.4296
rfemur -19.4943 -7.01568 26.9247
rtibia 61.5114
rfoot -31.1522 7.8811
rtoes 11.9827
lfemur -13.2642 -1.34722 -20.342
ltibia 3.36403
lfoot 26.3681 -0.357048
ltoes -21.4742
958
root -1.12912 23.2594 2.9718 -0.319553 -0.395177 0.0981878
lowerback 3.52844 -0.616734 1.19489
upperback 2.21679 -0.785765 4.03731
thorax 0.33994 -0.407456 3.50752
lowerneck -10.7266 1.93032 -9.80428
upperneck 43.7818 6.33797 -0.567275
head 17.9354 0.902932 2.59999
rclavicle 6.16232e-015 -1.74931e-014
rhumerus -33.0508 -4.40084 -75.9833
rradius 36.0583
rwrist 18.6264
rhand -19.4493 1.4501
rfingers 7.12502
rthumb 6.87141 -28.4184
lclavicle 6.16232e-015 -1.74931e-014
lhumerus -35.6304 14.8579 77.1016
lradius 28.7849
lwrist -6.985
lhand -8.63429 28.1255
lfingers 7.12502
lthumb 17.2984 57.3757
rfemur -19.7738 -7.1624 27.0057
rtibia 62.5341
rfoot -31.4871 8.12127
rtoes 12.0764
lfemur -11.8906 -1.18633 -20.3236
ltibia 1.14495
lfoot 26.9661 -0.32532
ltoes -21.0825
959
root -1.12365 23.188 3.02239 -0.371022 -0.382931 0.0359193
lowerback 3.49559 -0.591822 1.16832
upperback 2.19007 -0.753379 4.04305
thorax 0.329545 -0.391338 3.52719
lowerneck -10.6218 1.92839 -9.79065
upperneck 43.7757 6.23491 -0.384584
head 17.8936 0.891626 2.66229
rclavicle -1.37161e-014 2.22639e-014
rhumerus -33.179 -4.57136 -75.9251
rradius 35.9119
rwrist 18.5093
rhand -19.2345 1.43965
rfingers 7.12502
rthumb 7.07879 -28.422
lclavicle -1.37161e-014 2.22639e-014
lhumerus -35.6689 14.6606 77.158
lradius 28.8525
lwrist -6.89879
lhand -8.9217 27.9099
lfingers 7.12502
lthumb 17.0218 57.1842
rfemur -20.0049 -7.38536 27.0602
rtibia 63.5864
rfoot -31.9296 8.23936
rtoes 11.8226
lfemur -10.9951 -1.06493 -20.3135
ltibia 1.59028e-014
lfoot 27.387 -0.287565
ltoes -20.4977
960
root -1.11708 23.1185 3.06994 -0.411531 -0.395708 0.0358073
lowerback 3.49608 -0.581571 1.07476
upperback 2.17091 -0.741565 4.04937
thorax 0.310251 -0.386211 3.58632
lowerneck -10.6505 1.93132 -9.76228
upperneck 43.8122 6.21531 -0.330246
head 17.9203 0.892665 2.68131
rclavicle 3.08116e-015 3.97569e-014
rhumerus -33.2943 -4.52903 -75.9137
rradius 35.9205
rwrist 18.218
rhand -18.9318 1.49097
rfingers 7.12502
rthumb 7.37095 -28.3606
lclavicle 3.08116e-015 3.97569e-014
lhumerus -35.697 14.4114 77.289
lradius 28.9899
lwrist -6.49773
lhand -9.14937 27.7395
lfingers 7.12502
lthumb 16.8026 57.0324
rfemur -20.2587 -7.50019 27.0279
rtibia 64.65
rfoot -32.086 8.43228
rtoes 11.4403
lfemur -10.6446 -0.926864 -20.3896
ltibia 2.38542e-014
lfoot 27.2838 -0.339493
ltoes -19.5752
961
root -1.11088 23.0536 3.11696 -0.388673 -0.412518 -0.0825129
lowerback 3.46946 -0.579209 1.0801
upperback 2.12591 -0.737348 4.10342
thorax 0.279384 -0.384009 3.63925
lowerneck -10.7347 1.9024 -9.68923
upperneck 43.8731 6.22294 -0.458907
head 17.9929 0.88354 2.61422
rclavicle -1.87852e-014 2.22639e-014
rhumerus -33.4252 -4.41074 -75.8822
rradius 36.0186
rwrist 18.2869
rhand -18.9861 1.36247
rfingers 7.12502
rthumb 7.31856 -28.491
lclavicle -1.87852e-014 2.22639e-014
lhumerus -35.6959 14.3208 77.3692
lradius 29.0047
lwrist -6.32266
lhand -9.20636 27.7975
lfingers 7.12502
lthumb 16.7478 57.0951
rfemur -20.5512 -7.52962 27.1187
rtibia 65.6857
rfoot -32.3411 8.75966
rtoes 11.6548
lfemur -10.3598 -0.778515 -20.3178
ltibia 2.38542e-014
lfoot 27.2414 -0.224646
ltoes -17.8085
962
root -1.10405 22.9896 3.16644 -0.412524 -0.382465 -0.280169
lowerback 3.50421 -0.569849 1.14912
upperback 2.06612 -0.718915 4.19855
thorax 0.198009 -0.374011 3.69937
lowerneck -10.6711 1.90125 -9.7345
upperneck 43.9147 6.21918 -0.432746
head 17.999 0.877526 2.63303
rclavicle 1.03368e-014 -9.54166e-015
rhumerus -33.566 -4.418 -75.7518
rradius 36.038
rwrist 18.4728
rhand -19.2329 1.36556
rfingers 7.12502
rthumb 7.08035 -28.496
lclavicle 1.03368e-014 -9.54166e-015
lhumerus -35.7627 14.3577 77.4233
lradius 29.0227
lwrist -6.40646
lhand -9.09568 27.7312
lfingers 7.12502
lthumb 16.8543 57.0198
rfemur -20.8118 -7.61313 27.2992
rtibia 66.7063
rfoot -32.6263 8.69426
rtoes 10.5249
lfemur -10.0464 -0.67635 -20.1633
ltibia -6.36111e-015
lfoot 27.1558 -0.107358
ltoes -17.0441
963
root -1.09584 22.9257 3.21664 -0.500635 -0.370558 -0.318791
lowerback 3.60268 -0.551131 1.11194
upperback 2.03598 -0.689982 4.22196
thorax 0.111115 -0.359395 3.74518
lowerneck -10.5646 1.90825 -9.71719
upperneck 43.854 6.21105 -0.447966
head 17.9351 0.881881 2.61674
rclavicle -1.09332e-015 -1.27222e-014
rhumerus -33.6634 -4.48141 -75.6578
rradius 36.0068
rwrist 18.541
rhand -19.7513 1.52944
rfingers 7.12502
rthumb 6.57995 -28.3483
lclavicle -1.09332e-015 -1.27222e-014
lhumerus -35.8567 14.3172 77.4974
lradius 29.2149
lwrist -6.42277
lhand -8.93829 27.9027
lfingers 7.12502
lthumb 17.0058 57.1783
rfemur -21.0346 -7.68003 27.2577
rtibia 67.7556
rfoot -32.9447 8.71643
rtoes 9.33519
lfemur -9.64878 -0.560676 -20.1926
ltibia 2.06736e-014
lfoot 27.0245 0.0678876
ltoes -16.8305
964
root -1.08933 22.8635 3.26413 -0.547194 -0.335294 -0.339104
lowerback 3.61883 -0.54159 1.04965
upperback 2.04986 -0.679098 4.23495
thorax 0.116667 -0.354648 3.79368
lowerneck -10.5535 1.91315 -9.59366
upperneck 43.787 6.2176 -0.54511
head 17.901 0.896377 2.54912
rclavicle 9.0447e-015 -2.70347e-014
rhumerus -33.6225 -4.5759 -75.5805
rradius 35.939
rwrist 18.583
rhand -20.0121 1.52841
rfingers 7.12502
rthumb 6.32816 -28.3571
lclavicle 9.0447e-015 -2.70347e-014
lhumerus -35.8451 14.2463 77.6095
lradius 29.4423
lwrist -6.36974
lhand -8.82889 28.1551
lfingers 7.12502
lthumb 17.1111 57.4216
rfemur -21.2587 -7.70275 27.2068
rtibia 68.7882
rfoot -33.2022 9.10389
rtoes 9.67643
lfemur -9.31468 -0.464062 -20.2226
ltibia -3.02153e-014
lfoot 26.9123 0.353381
ltoes -16.0575
